<?xml version="1.0" encoding="UTF-8"?>
<svg width="211px" height="128px" viewBox="0 0 211 128" version="1.1" xmlns="http://www.w3.org/2000/svg" xmlns:xlink="http://www.w3.org/1999/xlink">
    <title>lotto-dstny-logo</title>
    <g id="Symbols" stroke="none" stroke-width="1" fill="none" fill-rule="evenodd">
        <g id="lotto-dstny-logo">
            <path d="M14.6781929,96.270298 L35.0290507,51.2625452 C35.61376,50.0534852 36.9268784,49.3696726 38.2548623,49.5876998 L208.449873,61.5345997 C211.873891,62.0945332 211.839205,67.0298764 208.410232,67.5402583 L17.8643633,100.606066 C15.4462433,100.967793 13.6128327,98.4753458 14.6781929,96.2752531 L14.6781929,96.270298 Z" id="e" fill="#FF8F1C" fill-rule="nonzero"></path>
            <g id="f" fill-rule="nonzero">
                <path d="M4.73813437,0.140120285 L177.063866,54.7113392 C181.255934,55.8708475 180.418512,62.0449816 176.067878,62.0449816 L24.8907855,62.0449816 C23.3199986,62.0449816 21.9127321,61.058904 21.3775744,59.57731 L0.228935314,5.0110463 C-0.801738756,2.15687195 1.81458773,-0.667571414 4.73813437,0.140120285 Z" id="Path" fill="#EE3124"></path>
                <g id="Group" transform="translate(27.712853, 26.625471)" fill="#FFFFFF">
                    <path d="M10.4924575,11.2928183 C10.5519194,11.2333563 12.8065189,8.43368878 19.6050037,8.43368878 C24.3718713,8.43368878 27.6472345,12.1252858 27.6472345,14.5681816 C27.6472345,16.8326914 24.0150995,21.7135278 16.3296404,21.4162179 C11.0276151,21.2130562 9.30321814,18.3787025 9.24375618,16.4115025 C9.18429421,14.4443025 11.6668313,9.79635883 17.920248,10.8716294 C17.920248,10.8716294 13.1286046,17.24397 17.4594178,17.7246209 C19.0648908,17.9030068 20.4969332,15.762376 20.4969332,14.0280687 C20.4969332,12.0608687 18.9509221,9.56346613 15.4922177,9.97969989 C12.2862267,10.3662027 10.4875023,11.2928183 10.4875023,11.2928183 L10.4924575,11.2928183 Z" id="Path"></path>
                    <path d="M40.0500095,15.0240566 L36.5367984,15.0240566 C36.5367984,15.0240566 35.8083893,18.0021101 35.5655863,19.5481212 C35.3277384,21.0990875 35.8034341,22.3477887 37.6517102,22.3477887 L40.4513778,22.3477887 L39.1432145,28.5417435 C39.1432145,28.5417435 36.403009,28.6012054 34.4952709,28.6012054 C32.1118371,28.6012054 27.0476597,25.682614 28.1823922,18.4728506 C29.2229766,11.8329311 30.5212295,5.42094919 30.9225978,3.46861466 L38.3900296,3.46861466 L37.5575621,8.64676083 L41.1005042,8.64676083 L40.0549647,15.0240566 L40.0500095,15.0240566 Z" id="Path"></path>
                    <path d="M53.012718,15.0389221 L49.4995069,15.0389221 C49.4995069,15.0389221 48.7710978,18.0169756 48.5332499,19.5629867 C48.2954021,21.1089978 48.7710978,22.3626542 50.6144187,22.3626542 L61.0648592,22.3626542 L59.7517408,28.556609 C59.7517408,28.556609 49.3657174,28.6160709 47.4579794,28.6160709 C45.0745456,28.6160709 40.0153234,25.6974795 41.1451007,18.4926713 C42.1856851,11.8527518 43.483938,5.44076985 43.8853063,3.48843531 L51.3527381,3.48843531 L50.5202706,8.66658148 L54.0582576,8.66658148 L53.012718,15.0389221 L53.012718,15.0389221 Z" id="Path"></path>
                    <path d="M55.2772279,11.282908 C55.3366898,11.223446 57.5962445,8.42377846 64.3897741,8.42377846 C69.1566417,8.42377846 72.4320049,12.1153755 72.4320049,14.5582712 C72.4320049,16.8227811 68.7998699,21.7085726 61.1144108,21.4063076 C55.8173407,21.1981907 54.0879885,18.3687922 54.0235714,16.4015922 C53.9641094,14.4343921 56.4516017,9.7864485 62.7050184,10.861719 C62.7050184,10.861719 57.913375,17.2340597 62.2441882,17.7147106 C63.8546164,17.8930965 65.2817036,15.7524657 65.2817036,14.0181584 C65.2817036,12.0509584 63.7356925,9.5535558 60.2769881,9.96978956 C57.0709972,10.3562923 55.2722727,11.2779528 55.2722727,11.2779528 L55.2772279,11.282908 Z" id="Path"></path>
                    <path d="M3.52549715,3.52085564e-15 L10.9086912,3.52085564e-15 C10.9086912,3.52085564e-15 7.99009974,16.2033856 7.63332794,18.1656305 C7.27655615,20.1328305 7.57386598,22.6351882 10.0167617,22.6351882 L18.4157644,22.6351882 L17.345449,28.6507571 C17.345449,28.6507571 10.6757985,28.7151742 8.76806045,28.6507571 C5.19538735,28.5318331 -1.36029435,26.6835571 0.250133883,17.8732758 C1.85560695,9.05803942 3.52549715,0.0049551638 3.52549715,0.0049551638 L3.52549715,3.52085564e-15 Z" id="Path"></path>
                </g>
            </g>
            <g id="g" transform="translate(20.182382, 65.890189)">
                <path d="M4.73813437,61.9048613 L177.063866,7.33364242 C181.255934,6.17413409 180.418512,0 176.067878,0 L24.8907855,0 C23.3199986,0 21.9127321,0.986077596 21.3775744,2.46767157 L0.228935314,57.0388905 C-0.801738756,59.8881097 1.81458773,62.7175082 4.73813437,61.9048613 Z" id="Path" fill="#00A7B5"></path>
                <g id="Group" transform="translate(27.264309, 6.124582)" fill-rule="nonzero">
                    <path d="M41.1823663,3.04742574 C40.0030373,3.04742574 39.0417356,4.00872751 39.0417356,5.1880565 C39.0417356,6.36738548 40.0030373,7.32868726 41.1823663,7.32868726 C42.3616953,7.32868726 43.3229971,6.36738548 43.3229971,5.1880565 C43.3229971,4.00872751 42.3616953,3.04742574 41.1823663,3.04742574 Z" id="Path" fill="#FF9015"></path>
                    <g fill="#FFFFFF">
                        <path d="M15.0736083,0 L12.9032465,0 C12.5464747,0 12.2590752,0.2873995 12.2590752,0.644171294 L12.2590752,4.7222711 C12.1203306,4.63307815 11.9865412,4.55379553 11.8527518,4.47946807 C10.6635125,3.83034162 9.3206631,3.49834564 7.85888978,3.49834564 C6.39711646,3.49834564 5.05426707,3.82538645 3.86502776,4.47946807 C2.67578845,5.12859453 1.724397,6.07007565 1.03562923,7.27913562 C0.35181663,8.48324042 -7.04171128e-15,9.88555178 -7.04171128e-15,11.436518 C-7.04171128e-15,12.9874843 0.336951138,14.4096163 1.00589825,15.608766 C1.67484536,16.8079156 2.60641616,17.7493967 3.77583481,18.4084335 C4.94525347,19.0674703 6.2682822,19.3994663 7.71519003,19.3994663 C9.16209786,19.3994663 10.5346782,19.0674703 11.7486934,18.4084335 C13.0172153,17.7196657 13.9933826,16.7732295 14.6474642,15.5939005 C15.5443488,13.9785171 15.7078692,12.4671921 15.7078692,10.0688928 L15.7078692,0.644171294 C15.7078692,0.2873995 15.4204697,0 15.0636979,0 L15.0736083,0 Z M9.90041727,15.7970622 C9.22651499,16.1637443 8.49315075,16.3520405 7.72510036,16.3520405 C6.52099556,16.3520405 5.51014214,15.9258964 4.71731594,15.0785634 C3.92448973,14.2312304 3.5181663,13.007305 3.5181663,11.436518 C3.5181663,10.376113 3.71141768,9.46931802 4.09792046,8.74090894 C4.48442324,8.01745502 5.0096706,7.46247668 5.65879706,7.10074972 C6.31287868,6.7340676 7.03633259,6.54577138 7.80438298,6.54577138 C8.57243337,6.54577138 9.30084245,6.7340676 9.9648344,7.10074972 C10.6238712,7.46743184 11.163984,8.01745502 11.5653523,8.7458641 C11.9667206,9.47427318 12.1748375,10.3810682 12.1748375,11.436518 C12.1748375,12.4919679 11.9617654,13.4086732 11.5405765,14.1420375 C11.1193876,14.8754017 10.5693644,15.4353352 9.8954621,15.8020174 L9.90041727,15.7970622 Z" id="Shape"></path>
                        <path d="M27.7538724,10.9657775 C27.045284,10.6635125 26.1335339,10.3612475 25.0384427,10.0688928 C24.2208406,9.83104497 23.6014452,9.63779359 23.1901666,9.48418351 C22.808619,9.34543892 22.4815781,9.14723237 22.2139993,8.90938451 C21.961286,8.68144697 21.812631,8.37918198 21.7977655,8.07196183 C21.7729897,7.57644545 21.9662411,7.19489783 22.3824749,6.89758801 C22.7887983,6.61018851 23.3883731,6.46153359 24.171289,6.46153359 C24.9542049,6.46153359 25.6033313,6.64982982 26.0592064,7.02642227 C26.4308437,7.32868726 26.6637364,7.70527971 26.7677948,8.17602027 C26.832212,8.46341977 27.0948356,8.67649181 27.3921455,8.67649181 L29.5773727,8.67649181 C29.7656689,8.67649181 29.9440548,8.59720919 30.0679339,8.45350944 C30.191813,8.30980969 30.2463198,8.12646863 30.221544,7.9381724 C30.0481133,6.65974014 29.4782694,5.61420058 28.526878,4.8312847 C27.4516074,3.94431038 26.0195651,3.49339048 24.2753474,3.49339048 C23.1059288,3.49339048 22.0603892,3.69159703 21.1585494,4.08305497 C20.2517544,4.47451291 19.5382109,5.02453609 19.0526048,5.71330386 C18.5620436,6.40702679 18.3093302,7.18003234 18.3093302,8.01249986 C18.3093302,9.0332636 18.5868194,9.87068628 19.1318874,10.4999921 C19.6670451,11.1193876 20.3062612,11.585173 21.0396255,11.887438 C21.7482139,12.1797926 22.6847399,12.4870128 23.8194724,12.7942329 C24.9690704,13.1163186 25.8164034,13.4185836 26.3466059,13.6861624 C26.8272568,13.9289654 27.0601495,14.2906924 27.0601495,14.7911639 C27.0601495,15.2668597 26.8470775,15.6434521 26.4060679,15.9506723 C25.955148,16.2678027 25.3010664,16.426368 24.4636437,16.426368 C23.626221,16.426368 22.9969152,16.2232063 22.476623,15.8168828 C22.0603892,15.4947972 21.7928104,15.1082944 21.6788416,14.6623297 C21.6094693,14.3798853 21.3518008,14.1816788 21.0594461,14.1816788 L18.7602501,14.1816788 C18.5719539,14.1816788 18.3886129,14.2659166 18.2647338,14.4096163 C18.1408547,14.5533161 18.0863479,14.7465675 18.1160788,14.9348637 C18.2350028,15.6533624 18.5174471,16.3223095 18.968367,16.9268395 C19.5332557,17.6849796 20.3062612,18.2944647 21.2626079,18.7305192 C22.2189545,19.1665736 23.3140457,19.3895559 24.5181505,19.3895559 C25.7222553,19.3895559 26.7529293,19.1913494 27.6349485,18.7998914 C28.526878,18.4084335 29.2255561,17.8534552 29.7161173,17.1547771 C30.2066785,16.456099 30.4593919,15.6484073 30.4593919,14.7564778 C30.4395712,13.7555347 30.1571269,12.9329775 29.6219692,12.3234924 C29.0967218,11.7239175 28.467416,11.2630873 27.7439621,10.950912 L27.7538724,10.9657775 Z" id="Path"></path>
                        <path d="M40.84046,16.2182511 L39.4034625,16.2182511 C38.8088429,16.2182511 38.3926091,16.1092375 38.1646716,15.8961655 C37.936734,15.6830934 37.8227653,15.3164113 37.8227653,14.8010743 L37.8227653,0.649126457 C37.8227653,0.292354664 37.5304106,0.0049551638 37.178594,0.0049551638 L34.9884116,0.0049551638 C34.6316398,0.0049551638 34.3442403,0.297309828 34.3442403,0.649126457 L34.3442403,3.44383884 C34.3442403,3.61231441 34.2054957,3.75105899 34.0370201,3.75105899 L32.159013,3.75105899 C31.8022413,3.75105899 31.5148418,4.04341366 31.5148418,4.39523029 L31.5148418,5.98583787 C31.5148418,6.34260966 31.8071964,6.63000916 32.159013,6.63000916 L34.0370201,6.63000916 C34.2054957,6.63000916 34.3442403,6.76875375 34.3442403,6.93722932 L34.3442403,14.8010743 C34.3442403,16.3223095 34.7406534,17.4421766 35.5235693,18.1259892 C36.30153,18.8098018 37.421397,19.1517081 38.8633497,19.1517081 L40.8503703,19.1517081 C41.2071421,19.1517081 41.4945416,18.8593534 41.4945416,18.5075368 L41.4945416,16.8624224 C41.4945416,16.5056506 41.202187,16.2182511 40.8503703,16.2182511 L40.84046,16.2182511 Z" id="Path"></path>
                        <path d="M55.6811756,4.26144087 C54.7198738,3.75601416 53.6198275,3.5033008 52.4157227,3.5033008 C51.5039725,3.5033008 50.6318637,3.6816867 49.8192168,4.0384585 C49.1502697,4.33081316 48.5754707,4.7222711 48.099775,5.20292199 L48.099775,4.40018545 C48.099775,4.04341366 47.8074203,3.75601416 47.4556037,3.75601416 L45.2901971,3.75601416 C44.9334253,3.75601416 44.6460258,4.04836882 44.6460258,4.40018545 L44.6460258,18.5124919 C44.6460258,18.8692637 44.9383805,19.1566632 45.2901971,19.1566632 L47.4556037,19.1566632 C47.8123755,19.1566632 48.099775,18.8643086 48.099775,18.5124919 L48.099775,10.5693644 C48.099775,9.27111147 48.4268158,8.26521321 49.0759423,7.58140061 C49.7250687,6.89758801 50.6169982,6.5556817 51.7269549,6.5556817 C52.8369116,6.5556817 53.7288411,6.90254317 54.363102,7.58140061 C55.0023182,8.26521321 55.329359,9.27111147 55.329359,10.5693644 L55.329359,18.5124919 C55.329359,18.8692637 55.6217136,19.1566632 55.9735303,19.1566632 L58.1092059,19.1566632 C58.4659776,19.1566632 58.7533771,18.8643086 58.7533771,18.5124919 L58.7533771,10.103579 C58.7533771,8.71613312 58.4808431,7.51202832 57.9407303,6.52099556 C57.3956623,5.5299628 56.632567,4.76686757 55.6663101,4.26639603 L55.6811756,4.26144087 Z" id="Path"></path>
                        <path d="M75.17479,4.0384585 C75.055866,3.8600726 74.8527043,3.75105899 74.6346771,3.75105899 L72.4494499,3.75105899 C72.181871,3.75105899 71.939068,3.91953456 71.8449199,4.16729275 L67.7222236,14.9249534 L63.7531374,4.17224792 C63.6589893,3.91953456 63.4161863,3.75105899 63.1486074,3.75105899 L60.7106668,3.75105899 C60.4975948,3.75105899 60.2944331,3.85511743 60.1755092,4.03350333 C60.0565852,4.21188923 60.0318094,4.4348716 60.111092,4.63307815 L65.7797994,19.0030532 C65.7401581,19.21117 65.675741,19.4192869 65.586548,19.6373141 C64.8730044,21.4261283 63.6342135,22.4320265 61.9048613,22.6302331 C61.5084482,22.6996054 61.3300623,23.021691 61.3300623,23.3140457 C61.3300623,23.4032386 61.3300623,23.7253243 61.320152,24.0920064 C61.3151968,24.5726573 61.3052865,25.1226805 61.3052865,25.3258422 C61.3052865,25.7569414 61.5480895,25.9947893 61.9940543,25.9947893 C62.2715434,25.9947893 62.5193016,25.9749686 62.7274185,25.9402825 C65.3090589,25.5091832 66.9938145,24.2059752 68.0195335,21.8274965 C68.2375607,21.3220698 68.4010811,20.9256567 68.5745118,20.5044678 L68.6537944,20.3161716 L75.2243416,4.64298848 C75.3085794,4.44478193 75.2838036,4.21684439 75.1648796,4.03350333 L75.17479,4.0384585 Z" id="Path"></path>
                    </g>
                </g>
            </g>
        </g>
    </g>
</svg>